<svg width="1600" height="1534" viewBox="0 0 1600 1534" fill="none" xmlns="http://www.w3.org/2000/svg">
<path d="M800 0.333252C358 0.333252 0 352.333 0 786.467C0 1133.87 229.2 1428.47 547 1532.33C587 1539.73 601.667 1515.4 601.667 1494.53C601.667 1475.87 601 1426.4 600.667 1360.87C378.133 1408.27 331.2 1255.4 331.2 1255.4C294.8 1164.67 242.2 1140.4 242.2 1140.4C169.733 1091.67 247.8 1092.67 247.8 1092.67C328.133 1098.13 370.333 1173.67 370.333 1173.67C441.667 1293.87 557.6 1259.13 603.333 1239.07C610.533 1188.2 631.133 1153.6 654 1133.93C476.333 1114.27 289.6 1046.67 289.6 745.467C289.6 659.667 320.6 589.533 371.933 534.533C362.933 514.667 335.933 434.733 378.933 326.467C378.933 326.467 445.933 305.4 598.933 407.067C662.933 389.6 730.933 380.933 798.933 380.533C866.933 380.933 934.933 389.6 998.933 407.067C1150.93 305.4 1217.93 326.467 1217.93 326.467C1260.93 434.733 1233.93 514.667 1225.93 534.533C1276.93 589.533 1307.93 659.667 1307.93 745.467C1307.93 1047.47 1120.93 1113.93 942.933 1133.27C970.933 1156.87 996.933 1205.07 996.933 1278.73C996.933 1383.93 995.933 1468.47 995.933 1494C995.933 1514.6 1009.93 1539.2 1050.93 1531.33C1371 1428.13 1600 1133.33 1600 786.467C1600 352.333 1241.8 0.333252 800 0.333252Z" fill="#3A3331"/>
</svg>
