<svg width="1600" height="1600" viewBox="0 0 1600 1600" fill="none" xmlns="http://www.w3.org/2000/svg">
<path d="M1123.35 0H476.649C213.823 0 0 213.823 0 476.649V1123.35C0 1386.18 213.823 1600 476.649 1600H1123.35C1386.18 1600 1600 1386.18 1600 1123.35V476.649C1600 213.823 1386.17 0 1123.35 0ZM1439.04 1123.35C1439.04 1297.7 1297.7 1439.04 1123.35 1439.04H476.649C302.3 1439.04 160.96 1297.7 160.96 1123.35V476.649C160.96 302.297 302.3 160.96 476.649 160.96H1123.35C1297.7 160.96 1439.04 302.297 1439.04 476.649V1123.35Z" fill="#3A3331"/>
<path d="M800 386.183C571.821 386.183 386.183 571.821 386.183 799.997C386.183 1028.17 571.821 1213.81 800 1213.81C1028.18 1213.81 1213.82 1028.18 1213.82 799.997C1213.82 571.818 1028.18 386.183 800 386.183ZM800 1052.86C660.35 1052.86 547.143 939.65 547.143 800C547.143 660.35 660.353 547.143 800 547.143C939.65 547.143 1052.86 660.35 1052.86 800C1052.86 939.647 939.647 1052.86 800 1052.86Z" fill="#3A3331"/>
<path d="M1214.62 488.449C1269.38 488.449 1313.78 444.054 1313.78 389.29C1313.78 334.526 1269.38 290.131 1214.62 290.131C1159.85 290.131 1115.46 334.526 1115.46 389.29C1115.46 444.054 1159.85 488.449 1214.62 488.449Z" fill="#3A3331"/>
</svg>
