<svg width="1600" height="1600" viewBox="0 0 1600 1600" fill="none" xmlns="http://www.w3.org/2000/svg">
<path d="M1455.27 0H144.733C64.8 0 0 64.8 0 144.733V1455.26C0 1535.2 64.8 1600 144.733 1600H1455.26C1535.2 1600 1600 1535.2 1600 1455.26V144.733C1600 64.8 1535.2 0 1455.27 0ZM495.108 1381.55C495.108 1404.81 476.251 1423.66 452.988 1423.66H273.696C250.434 1423.66 231.577 1404.81 231.577 1381.55V629.96C231.577 606.697 250.434 587.841 273.696 587.841H452.988C476.251 587.841 495.108 606.697 495.108 629.96V1381.55ZM363.342 516.993C269.273 516.993 193.014 440.733 193.014 346.664C193.014 252.595 269.273 176.335 363.342 176.335C457.412 176.335 533.671 252.595 533.671 346.664C533.671 440.733 457.416 516.993 363.342 516.993ZM1432.08 1384.94C1432.08 1406.32 1414.74 1423.66 1393.36 1423.66H1200.96C1179.58 1423.66 1162.24 1406.32 1162.24 1384.94V1032.4C1162.24 979.812 1177.66 801.948 1024.8 801.948C906.228 801.948 882.178 923.69 877.349 978.325V1384.94C877.349 1406.32 860.013 1423.66 838.622 1423.66H652.544C631.158 1423.66 613.818 1406.32 613.818 1384.94V626.568C613.818 605.181 631.158 587.841 652.544 587.841H838.622C860.008 587.841 877.349 605.181 877.349 626.568V692.138C921.315 626.157 986.656 575.229 1125.78 575.229C1433.85 575.229 1432.08 863.045 1432.08 1021.19V1384.94Z" fill="#3A3331"/>
</svg>
