<svg width="2930" height="3639" viewBox="0 0 2930 3639" fill="none" xmlns="http://www.w3.org/2000/svg">
<path d="M264.738 137.084C238.512 71.4052 286.887 0 357.608 0H1942.25C1983.17 0 2019.95 24.9213 2035.12 62.9165L2875.26 2166.92C2901.49 2232.59 2853.11 2304 2782.39 2304H1197.75C1156.83 2304 1120.05 2279.08 1104.88 2241.08L264.738 137.084Z" fill="#FF2500"/>
<path d="M264.738 137.084C238.512 71.4052 286.887 0 357.608 0H1942.25C1983.17 0 2019.95 24.9213 2035.12 62.9165L2875.26 2166.92C2901.49 2232.59 2853.11 2304 2782.39 2304H1197.75C1156.83 2304 1120.05 2279.08 1104.88 2241.08L264.738 137.084Z" fill="#FF2500"/>
<path d="M54.7382 1472.08C28.5125 1406.41 76.8872 1335 147.608 1335H1732.25C1773.17 1335 1809.95 1359.92 1825.12 1397.92L2665.26 3501.92C2691.49 3567.59 2643.11 3639 2572.39 3639H987.747C946.835 3639 910.049 3614.08 894.877 3576.08L54.7382 1472.08Z" fill="#FFBB0F"/>
<path d="M54.7382 1472.08C28.5125 1406.41 76.8872 1335 147.608 1335H1732.25C1773.17 1335 1809.95 1359.92 1825.12 1397.92L2665.26 3501.92C2691.49 3567.59 2643.11 3639 2572.39 3639H987.747C946.835 3639 910.049 3614.08 894.877 3576.08L54.7382 1472.08Z" fill="#FFBB0F"/>
<path d="M745.5 1335H1732.71C1773.64 1335 1810.44 1359.95 1825.6 1397.97L2187 2304.5L1197.68 2302.16C1156.8 2302.06 1120.1 2277.1 1104.99 2239.11L745.5 1335Z" fill="#FF6E00"/>
</svg>
